<?xml version="1.0" encoding="UTF-8"?> <svg xmlns="http://www.w3.org/2000/svg" width="24" height="24" viewBox="0 0 24 24" fill="none"><path d="M10.7184 5.35865C10.7186 6.41866 10.4043 7.45489 9.81549 8.33629C9.22666 9.2177 8.38967 9.90469 7.41037 10.3104C6.43108 10.7161 5.35347 10.8223 4.31383 10.6155C3.27419 10.4087 2.31922 9.8983 1.56968 9.14877C0.820147 8.39923 0.309719 7.44426 0.102951 6.40462C-0.103818 5.36498 0.00236061 4.28737 0.408058 3.30807C0.813755 2.32878 1.50075 1.49179 2.38215 0.902955C3.26356 0.31412 4.29979 -0.000112205 5.35979 3.00549e-08C6.78095 0.000150505 8.14386 0.56477 9.14877 1.56968C10.1537 2.57459 10.7183 3.9375 10.7184 5.35865Z" fill="#00AAFF"></path><path d="M23.9997 17.4743C23.9999 18.7647 23.6175 20.0261 22.9009 21.0991C22.1842 22.1722 21.1654 23.0086 19.9734 23.5026C18.7813 23.9966 17.4696 24.1261 16.2039 23.8746C14.9383 23.6231 13.7757 23.002 12.8631 22.0898C11.9505 21.1776 11.3289 20.0152 11.0768 18.7497C10.8248 17.4842 10.9537 16.1724 11.4472 14.9802C11.9407 13.7879 12.7767 12.7688 13.8494 12.0516C14.9221 11.3345 16.1834 10.9515 17.4737 10.9512C18.3307 10.9511 19.1792 11.1198 19.971 11.4477C20.7627 11.7755 21.4821 12.2561 22.0881 12.862C22.6941 13.4679 23.1748 14.1872 23.5028 14.9789C23.8308 15.7706 23.9996 16.6191 23.9997 17.476" fill="#97CF26"></path><path d="M21.6696 5.35581C21.6703 6.18549 21.4249 6.99672 20.9644 7.6869C20.504 8.37707 19.8491 8.91518 19.0828 9.23315C18.3165 9.55112 17.4731 9.63466 16.6593 9.47321C15.8455 9.31176 15.0978 8.91257 14.5109 8.32614C13.924 7.73971 13.5242 6.99239 13.3621 6.17871C13.2 5.36502 13.2828 4.52154 13.6002 3.75496C13.9175 2.98837 14.4551 2.33313 15.1449 1.87212C15.8347 1.41111 16.6458 1.16504 17.4754 1.16504C18.5872 1.16504 19.6535 1.60646 20.44 2.39228C21.2264 3.17811 21.6687 4.24404 21.6696 5.35581Z" fill="#FF6163"></path><path d="M8.38833 17.4726C8.38889 18.0718 8.21171 18.6577 7.87921 19.1562C7.5467 19.6548 7.07381 20.0434 6.52036 20.2731C5.96691 20.5029 5.35777 20.5632 4.76999 20.4467C4.18221 20.3301 3.64221 20.0418 3.21829 19.6183C2.79438 19.1948 2.5056 18.6551 2.38849 18.0674C2.27138 17.4797 2.3312 16.8705 2.56039 16.3169C2.78957 15.7632 3.17782 15.29 3.67602 14.957C4.17422 14.624 4.75998 14.4463 5.3592 14.4463C5.75682 14.4461 6.15058 14.5242 6.51801 14.6761C6.88544 14.8281 7.21933 15.051 7.50062 15.332C7.7819 15.613 8.00508 15.9467 8.15739 16.314C8.30971 16.6813 8.38818 17.075 8.38833 17.4726Z" fill="#A169F7"></path></svg> 