<?xml version="1.0" encoding="UTF-8"?> <svg xmlns="http://www.w3.org/2000/svg" width="24" height="24" viewBox="0 0 24 24" fill="none"><path d="M12 24C18.6274 24 24 18.6274 24 12C24 5.37258 18.6274 0 12 0C5.37258 0 0 5.37258 0 12C0 18.6274 5.37258 24 12 24Z" fill="#2659FD"></path><path d="M17.6303 17.2798C16.9365 17.97 16.2428 18.6597 15.5493 19.3487C15.3507 19.5458 15.1492 19.7397 14.9448 19.9305C14.3851 20.4519 13.5361 20.43 12.9984 19.8825C12.4771 19.3514 12.4807 18.4879 13.0123 17.9542C13.2978 17.6675 13.5918 17.3895 13.8809 17.1068C13.9234 17.0654 13.9614 17.0195 14.0014 16.9758C14.0144 16.8984 14.0599 16.8417 14.1144 16.7877C14.4616 16.442 14.8195 16.1059 15.1538 15.7479C15.518 15.3581 15.9131 14.9947 16.245 14.5746C16.6185 14.11 16.8191 13.5312 16.8128 12.9362C16.8098 12.2607 16.5676 11.6637 16.1369 11.1371C15.6619 10.5566 15.0433 10.2655 14.308 10.1968C13.5358 10.1248 12.8557 10.3338 12.2722 10.8532C11.7972 11.2763 11.3584 11.7344 10.9274 12.2001C10.4964 12.6657 9.6988 12.7398 9.19399 12.4729C8.36961 12.0379 8.16209 10.9218 8.78707 10.2334C9.08586 9.90355 9.38736 9.57822 9.70121 9.26278C9.78645 9.17702 9.89578 9.12245 9.9759 9.03189C10.8617 8.07238 11.9599 7.52096 13.2487 7.33086C14.0834 7.20752 14.9351 7.26999 15.7426 7.51376C16.5426 7.75094 17.2522 8.14884 17.8546 8.72785C18.0523 8.91126 18.2388 9.10632 18.4131 9.31195C18.4685 9.45498 18.5971 9.54254 18.6823 9.66457C19.203 10.4023 19.5414 11.2519 19.6703 12.1443C19.851 13.3875 19.6227 14.556 19.0212 15.6549C18.8194 16.0174 18.5757 16.355 18.295 16.6609C18.1308 16.8426 17.9712 17.0282 17.783 17.1853C17.7396 17.2275 17.6874 17.2597 17.6303 17.2798Z" fill="#FEFEFE"></path><path d="M4.81232 8.69788C5.24935 7.78952 5.95924 7.09897 6.64859 6.38973C7.40797 5.60958 8.18184 4.84382 8.97019 4.09244C9.54365 3.5464 10.4026 3.56208 10.9432 4.1226C11.4726 4.67166 11.4602 5.53658 10.9015 6.08352C9.97374 6.99369 9.03931 7.89692 8.14562 8.84087C8.1079 8.881 8.07137 8.92233 8.03425 8.96154C6.70624 10.2195 6.71802 12.071 8.06293 13.297C9.01728 14.167 10.6888 14.1743 11.663 13.3075C12.1399 12.8852 12.5778 12.42 13.0152 11.956C13.6101 11.3246 14.5279 11.3149 15.0932 11.9307C15.5496 12.4275 15.5976 13.214 15.1509 13.7245C14.5472 14.4153 13.9182 15.092 13.1821 15.6459C11.9896 16.5428 10.6302 16.8574 9.15913 16.686C7.68202 16.5138 6.4844 15.8244 5.54846 14.6735C5.03052 14.0443 4.65371 13.3113 4.44349 12.5241C4.43202 12.4818 4.42418 12.4384 4.41482 12.3956C4.27055 11.7147 4.22316 11.0296 4.32095 10.3372C4.40201 9.76932 4.56763 9.21676 4.81232 8.69788Z" fill="#FEFEFE"></path></svg> 