<?xml version="1.0" encoding="UTF-8"?> <svg xmlns="http://www.w3.org/2000/svg" width="24" height="24" viewBox="0 0 24 24" fill="none"><path fill-rule="evenodd" clip-rule="evenodd" d="M16.4189 0.0327842C16.491 0.0279547 16.5634 0.0387778 16.6311 0.0645283C16.6987 0.0902788 16.7602 0.130363 16.8113 0.182096C16.8625 0.23383 16.9021 0.296018 16.9275 0.364499C16.953 0.432979 16.9637 0.506172 16.9589 0.579175V0.655669L16.2029 4.15257C16.2029 4.26185 16.3109 4.4804 16.4189 4.4804H23.4394C23.5223 4.47159 23.6061 4.48359 23.6833 4.51533C23.7606 4.54707 23.829 4.59758 23.8823 4.6624C23.9357 4.72721 23.9725 4.80434 23.9894 4.88695C24.0064 4.96956 24.0029 5.05513 23.9794 5.13607L22.3593 12.0206C22.3214 12.1602 22.235 12.2813 22.1159 12.3616C21.9969 12.4419 21.8532 12.476 21.7112 12.4577L17.931 12.2392C17.2878 12.2109 16.6463 12.3232 16.0499 12.5684C15.4535 12.8135 14.9162 13.1858 14.4748 13.6598C13.9059 14.2799 13.5227 15.0508 13.3698 15.8826C13.2168 16.7144 13.3004 17.573 13.6107 18.3587C13.8875 19.0481 14.3991 19.6145 15.0529 19.9552C15.7067 20.296 16.4595 20.3887 17.1749 20.2165C17.7096 20.1101 18.1847 19.8033 18.5052 19.3574C18.8257 18.9116 18.9678 18.3597 18.903 17.8123C18.795 16.7196 18.363 16.3917 17.715 16.3917C17.0669 16.3917 16.8509 16.7196 16.8509 17.0474C16.8471 17.191 16.8741 17.3338 16.93 17.4658C16.986 17.5979 17.0695 17.7161 17.1749 17.8123C17.499 18.1402 16.8509 19.1237 15.9869 18.5773C15.6807 18.3636 15.445 18.062 15.3102 17.7113C15.1754 17.3606 15.1478 16.977 15.2308 16.6103C15.3096 15.9323 15.6477 15.3126 16.1725 14.8837C16.6974 14.4547 17.3673 14.2508 18.039 14.3154C18.8398 14.2638 19.631 14.5145 20.2595 15.0192C20.888 15.5239 21.3091 16.2466 21.4412 17.0474C21.6679 18.2319 21.4926 19.4591 20.9437 20.5302C20.3948 21.6012 19.5045 22.4533 18.417 22.9484C15.3928 24.5876 10.3165 24.4783 7.50829 21.4185C6.77577 20.5914 6.21631 19.6228 5.86363 18.5711C5.51095 17.5194 5.37234 16.4063 5.45615 15.2989C5.45814 14.5941 5.56743 13.8938 5.78018 13.2227C5.78221 13.11 5.75291 12.999 5.69562 12.9024C5.63833 12.8058 5.55535 12.7275 5.45615 12.6763H0.541827C0.385143 12.6597 0.241046 12.5819 0.14019 12.4594C0.0393348 12.3369 -0.0103193 12.1795 0.00179095 12.0206V11.9113L1.51389 5.24535C1.55515 5.0488 1.66544 4.87404 1.82432 4.75348C1.9832 4.63292 2.1799 4.57472 2.37795 4.58968H7.02226C7.14686 4.54514 7.26003 4.47295 7.35348 4.37841C7.44692 4.28386 7.51827 4.16936 7.56229 4.04329L8.31835 0.655669C8.3739 0.46712 8.48787 0.301621 8.64343 0.183572C8.799 0.0655222 8.98794 0.00116852 9.1824 0L16.4189 0.0327842Z" fill="#19D66B"></path></svg> 