<?xml version="1.0" encoding="UTF-8"?> <svg xmlns="http://www.w3.org/2000/svg" width="56" height="56" viewBox="0 0 56 56" fill="none"><path d="M21.3125 32.8231C21.3125 35.4502 23.3438 37.5627 25.8354 37.5627H30.9271C33.0938 37.5627 34.8542 35.721 34.8542 33.4189C34.8542 30.9543 33.7708 30.0606 32.1729 29.4918L24.0208 26.6481C22.4229 26.0793 21.3396 25.2127 21.3396 22.721C21.3396 20.446 23.1 18.5772 25.2667 18.5772H30.3583C32.85 18.5772 34.8813 20.6897 34.8813 23.3168M28.0833 15.896V40.271" stroke="#C9C9C9" stroke-width="1.5" stroke-linecap="round" stroke-linejoin="round"></path><path d="M55.1667 28.0833C55.1667 43.0333 43.0333 55.1667 28.0833 55.1667C13.1333 55.1667 1 43.0333 1 28.0833C1 13.1333 13.1333 1 28.0833 1" stroke="#C9C9C9" stroke-width="1.5" stroke-linecap="round" stroke-linejoin="round"></path><path d="M41.625 3.70833V14.5417M41.625 14.5417H52.4583M41.625 14.5417L55.1667 1" stroke="#C9C9C9" stroke-width="1.5" stroke-linecap="round" stroke-linejoin="round"></path></svg> 