<?xml version="1.0" encoding="UTF-8"?> <svg xmlns="http://www.w3.org/2000/svg" width="53" height="57" viewBox="0 0 53 57" fill="none"><path d="M1 55.3229C1 44.8114 11.3712 36.3099 24.1398 36.3099C26.7259 36.3099 29.2311 36.663 31.5748 37.3148M24.1398 28.1614C27.7121 28.1614 31.138 26.7306 33.6639 24.1837C36.1898 21.6369 37.6089 18.1826 37.6089 14.5807C37.6089 10.9789 36.1898 7.52458 33.6639 4.9777C31.138 2.43082 27.7121 1 24.1398 1C20.5676 1 17.1417 2.43082 14.6158 4.9777C12.0898 7.52458 10.6708 10.9789 10.6708 14.5807C10.6708 18.1826 12.0898 21.6369 14.6158 24.1837C17.1417 26.7306 20.5676 28.1614 24.1398 28.1614Z" stroke="#C9C9C9" stroke-width="1.5" stroke-linecap="round" stroke-linejoin="round"></path><path d="M44.7402 44.6416H36.3821M40.5612 40.7623V48.707M51.78 44.6948C51.78 45.545 51.6678 46.3687 51.4434 47.1659C51.191 48.2287 50.7423 49.265 50.1533 50.1684C49.1645 51.7427 47.76 53.0459 46.0781 53.9498C44.3962 54.8536 42.4948 55.3269 40.5612 55.3231C37.7998 55.3308 35.1364 54.3538 33.1006 52.5863C32.2592 51.8955 31.53 51.0718 30.969 50.1684C29.9014 48.5221 29.3382 46.6269 29.3423 44.6948C29.3405 43.2985 29.6294 41.9157 30.1925 40.6254C30.7557 39.3351 31.582 38.1628 32.6241 37.1755C33.6662 36.1882 34.9037 35.4054 36.2657 34.8719C37.6277 34.3384 39.0874 34.0647 40.5612 34.0664C43.8707 34.0664 46.8718 35.4215 48.8911 37.6003C50.6862 39.4869 51.78 41.9845 51.78 44.6948Z" stroke="#C9C9C9" stroke-width="1.5" stroke-miterlimit="10" stroke-linecap="round" stroke-linejoin="round"></path></svg> 